<mxfile host="app.diagrams.net" modified="2022-10-24T18:25:51.990Z" agent="5.0 (Macintosh; Intel Mac OS X 10_15_7) AppleWebKit/537.36 (KHTML, like Gecko) Chrome/106.0.0.0 Safari/537.36" etag="JLjhud1icPLNL_LMxqd_" version="20.5.1" type="github">
  <diagram id="xUkFzmVO0vlBVsABeKhz" name="Page-1">
    <mxGraphModel dx="1501" dy="727" grid="1" gridSize="10" guides="1" tooltips="1" connect="1" arrows="1" fold="1" page="1" pageScale="1" pageWidth="850" pageHeight="1100" math="0" shadow="0">
      <root>
        <mxCell id="0" />
        <mxCell id="1" parent="0" />
        <mxCell id="UFLEkfPhrMQ23omqmo75-6" value="" style="group" vertex="1" connectable="0" parent="1">
          <mxGeometry x="40" y="40" width="290" height="290" as="geometry" />
        </mxCell>
        <mxCell id="UFLEkfPhrMQ23omqmo75-2" value="Infraestructure" style="ellipse;whiteSpace=wrap;html=1;aspect=fixed;fillColor=#ffe6cc;strokeColor=#d79b00;align=center;verticalAlign=top;" vertex="1" parent="UFLEkfPhrMQ23omqmo75-6">
          <mxGeometry width="290" height="290" as="geometry" />
        </mxCell>
        <mxCell id="UFLEkfPhrMQ23omqmo75-3" value="Application" style="ellipse;whiteSpace=wrap;html=1;aspect=fixed;fillColor=#d5e8d4;strokeColor=#82b366;verticalAlign=top;" vertex="1" parent="UFLEkfPhrMQ23omqmo75-6">
          <mxGeometry x="40" y="40" width="210" height="210" as="geometry" />
        </mxCell>
        <mxCell id="UFLEkfPhrMQ23omqmo75-4" value="Domain" style="ellipse;whiteSpace=wrap;html=1;aspect=fixed;fillColor=#f8cecc;strokeColor=#b85450;" vertex="1" parent="UFLEkfPhrMQ23omqmo75-6">
          <mxGeometry x="85" y="85" width="120" height="120" as="geometry" />
        </mxCell>
      </root>
    </mxGraphModel>
  </diagram>
</mxfile>
